<svg width="180" height="39" viewBox="0 0 180 39" fill="none" xmlns="http://www.w3.org/2000/svg">
<path d="M138.028 19.0985C138.131 15.8637 138.697 13.0716 139.726 10.7221C140.789 8.37267 142.229 6.44883 144.046 4.95062C145.898 3.41837 148.075 2.29471 150.579 1.57965C153.116 0.83055 155.928 0.455997 159.014 0.455997C162.1 0.455997 164.895 0.847574 167.398 1.63073C169.936 2.37983 172.113 3.52051 173.931 5.05277C175.782 6.58503 177.222 8.52589 178.251 10.8754C179.314 13.1908 179.897 15.9318 180 19.0985V20.0178C179.897 23.1845 179.314 25.9426 178.251 28.292C177.222 30.6074 175.782 32.5142 173.931 34.0124C172.113 35.5107 169.936 36.6173 167.398 37.3323C164.895 38.0814 162.1 38.456 159.014 38.456C155.928 38.456 153.116 38.0814 150.579 37.3323C148.075 36.6173 145.898 35.5107 144.046 34.0124C142.229 32.4802 140.789 30.5564 139.726 28.2409C138.697 25.9255 138.131 23.1845 138.028 20.0178V19.0985ZM159.014 4.95062C156.648 4.95062 154.488 5.25707 152.533 5.86998C150.613 6.48288 148.967 7.40223 147.595 8.62804C146.258 9.8198 145.212 11.335 144.458 13.1737C143.738 14.9784 143.378 17.1065 143.378 19.5581C143.378 21.9076 143.738 23.9847 144.458 25.7893C145.212 27.5599 146.258 29.0581 147.595 30.284C148.967 31.4757 150.613 32.3951 152.533 33.042C154.488 33.6549 156.648 33.9614 159.014 33.9614C161.38 33.9614 163.523 33.6549 165.444 33.042C167.398 32.4291 169.044 31.5268 170.381 30.335C171.753 29.1092 172.799 27.611 173.519 25.8404C174.273 24.0357 174.651 21.9417 174.651 19.5581C174.651 17.2087 174.273 15.1316 173.519 13.327C172.799 11.5223 171.753 10.0071 170.381 8.78127C169.044 7.52141 167.398 6.56801 165.444 5.92105C163.523 5.2741 161.38 4.95062 159.014 4.95062Z" fill="black"/>
<path d="M101.937 4.89955V37.3323H96.8959V1.57965H105.691L129.043 34.0124V1.57965H134.033V37.3323H125.186L101.937 4.89955Z" fill="black"/>
<path d="M50.9288 19.0985C51.0317 15.8637 51.5975 13.0716 52.6262 10.7221C53.6892 8.37267 55.1294 6.44883 56.9468 4.95062C58.7985 3.41837 60.976 2.29471 63.4792 1.57965C66.0167 0.83055 68.8285 0.455997 71.9147 0.455997C75.0008 0.455997 77.7955 0.847574 80.2987 1.63073C82.8363 2.37983 85.0137 3.52051 86.8311 5.05277C88.6828 6.58503 90.123 8.52589 91.1517 10.8754C92.2147 13.1908 92.7977 15.9318 92.9005 19.0985V20.0178C92.7977 23.1845 92.2147 25.9426 91.1517 28.292C90.123 30.6074 88.6828 32.5142 86.8311 34.0124C85.0137 35.5107 82.8363 36.6173 80.2987 37.3323C77.7955 38.0814 75.0008 38.456 71.9147 38.456C68.8285 38.456 66.0167 38.0814 63.4792 37.3323C60.976 36.6173 58.7985 35.5107 56.9468 34.0124C55.1294 32.4802 53.6892 30.5564 52.6262 28.2409C51.5975 25.9255 51.0317 23.1845 50.9288 20.0178V19.0985ZM71.9147 4.95062C69.5486 4.95062 67.3883 5.25707 65.4338 5.86998C63.5135 6.48288 61.8676 7.40223 60.4959 8.62804C59.1586 9.8198 58.1127 11.335 57.3583 13.1737C56.6382 14.9784 56.2782 17.1065 56.2782 19.5581C56.2782 21.9076 56.6382 23.9847 57.3583 25.7893C58.1127 27.5599 59.1586 29.0581 60.4959 30.284C61.8676 31.4757 63.5135 32.3951 65.4338 33.042C67.3883 33.6549 69.5486 33.9614 71.9147 33.9614C74.2807 33.9614 76.4239 33.6549 78.3442 33.042C80.2988 32.4291 81.9447 31.5268 83.282 30.335C84.6536 29.1092 85.6995 27.611 86.4196 25.8404C87.174 24.0357 87.5512 21.9417 87.5512 19.5581C87.5512 17.2087 87.174 15.1316 86.4196 13.327C85.6995 11.5223 84.6536 10.0071 83.282 8.78127C81.9447 7.52141 80.2988 6.56801 78.3442 5.92105C76.4239 5.2741 74.2807 4.95062 71.9147 4.95062Z" fill="black"/>
<path fill-rule="evenodd" clip-rule="evenodd" d="M23.4667 30.5623L26.5515 26.2778L41.9441 4.89956L41.9441 37.3323H46.9334L46.9334 1.57966L38.0864 1.57966L20.3818 26.2778L23.4667 30.5623Z" fill="black"/>
<path fill-rule="evenodd" clip-rule="evenodd" d="M20.3818 26.2778L4.98931 4.89956L4.98931 37.3323H1.06943e-05L0 1.57966L8.84698 1.57966L26.5515 26.2778L23.4667 30.5623L20.3818 26.2778Z" fill="black"/>
</svg>
